<svg xmlns="http://www.w3.org/2000/svg" version="1.1" xmlns:xlink="http://www.w3.org/1999/xlink" xmlns:svgjs="http://svgjs.dev/svgjs" width="900" height="560" preserveAspectRatio="none" viewBox="0 0 900 560"><g mask="url(&quot;#SvgjsMask1068&quot;)" fill="none"><rect width="900" height="560" x="0" y="0" fill="rgba(131, 3, 165, 1)"></rect><path d="M 0,270 C 36,283.2 108,366 180,336 C 252,306 288,76.2 360,120 C 432,163.8 468,523.8 540,555 C 612,586.2 648,300.4 720,276 C 792,251.6 864,401.6 900,433L900 560L0 560z" fill="rgba(81, 19, 176, 1)"></path><path d="M 0,508 C 45,462.2 135,308.6 225,279 C 315,249.4 360,369.2 450,360 C 540,350.8 585,219.8 675,233 C 765,246.2 855,387.4 900,426L900 560L0 560z" fill="rgba(225, 228, 233, 1)"></path></g><defs><mask id="SvgjsMask1068"><rect width="900" height="560" fill="#ffffff"></rect></mask></defs></svg>