<svg xmlns="http://www.w3.org/2000/svg" version="1.1" xmlns:xlink="http://www.w3.org/1999/xlink" xmlns:svgjs="http://svgjs.dev/svgjs" width="560" height="900" preserveAspectRatio="none" viewBox="0 0 560 900"><g mask="url(&quot;#SvgjsMask1142&quot;)" fill="none"><rect width="560" height="900" x="0" y="0" fill="rgba(131, 3, 165, 1)"></rect><path d="M 0,166 C 22.4,311.6 67.2,879.2 112,894 C 156.8,908.8 179.2,240.6 224,240 C 268.8,239.4 291.2,930.6 336,891 C 380.8,851.4 403.2,113.6 448,42 C 492.8,-29.6 537.6,434.8 560,533L560 900L0 900z" fill="rgba(81, 19, 176, 1)"></path><path d="M 0,93 C 28,220 84,671.8 140,728 C 196,784.2 224,428 280,374 C 336,320 364,480.6 420,458 C 476,435.4 532,300.4 560,261L560 900L0 900z" fill="rgba(225, 228, 233, 1)"></path></g><defs><mask id="SvgjsMask1142"><rect width="560" height="900" fill="#ffffff"></rect></mask></defs></svg>