<svg xmlns="http://www.w3.org/2000/svg" version="1.1" xmlns:xlink="http://www.w3.org/1999/xlink" xmlns:svgjs="http://svgjs.dev/svgjs" width="850" height="700" preserveAspectRatio="none" viewBox="0 0 850 700"><g mask="url(&quot;#SvgjsMask1028&quot;)" fill="none"><rect width="850" height="700" x="0" y="0" fill="#0e2a47"></rect><g mask="url(&quot;#SvgjsMask1029&quot;)"><path d="M-12.5 362.5L12.5 387.5" stroke="rgba(58, 168, 171, 1)" stroke-width="4.17"></path><path d="M6.25 387.5 a6.25 6.25 0 1 0 12.5 0 a6.25 6.25 0 1 0 -12.5 0z" fill="rgba(58, 168, 171, 1)"></path><path d="M12.5 337.5L37.5 362.5L62.5 362.5L87.5 362.5M-12.5 337.5L12.5 337.5L37.5 337.5L62.5 337.5L87.5 337.5" stroke="rgba(58, 168, 171, 1)" stroke-width="4.17"></path><path d="M81.25 337.5 a6.25 6.25 0 1 0 12.5 0 a6.25 6.25 0 1 0 -12.5 0zM81.25 362.5 a6.25 6.25 0 1 0 12.5 0 a6.25 6.25 0 1 0 -12.5 0z" fill="rgba(58, 168, 171, 1)"></path><path d="M37.5 412.5L62.5 387.5L87.5 387.5M-12.5 387.5L12.5 412.5L37.5 412.5L62.5 412.5L87.5 412.5" stroke="rgba(58, 171, 77, 1)" stroke-width="4.17"></path><path d="M81.25 412.5 a6.25 6.25 0 1 0 12.5 0 a6.25 6.25 0 1 0 -12.5 0zM81.25 387.5 a6.25 6.25 0 1 0 12.5 0 a6.25 6.25 0 1 0 -12.5 0z" fill="rgba(58, 171, 77, 1)"></path><path d="M137.5 312.5L162.5 312.5M112.5 312.5L137.5 287.5L162.5 287.5M-12.5 312.5L12.5 312.5L37.5 312.5L62.5 312.5L87.5 312.5L112.5 312.5L137.5 312.5L162.5 337.5" stroke="rgba(205, 79, 100, 1)" stroke-width="4.17"></path><path d="M156.25 337.5 a6.25 6.25 0 1 0 12.5 0 a6.25 6.25 0 1 0 -12.5 0zM156.25 312.5 a6.25 6.25 0 1 0 12.5 0 a6.25 6.25 0 1 0 -12.5 0zM156.25 287.5 a6.25 6.25 0 1 0 12.5 0 a6.25 6.25 0 1 0 -12.5 0z" fill="rgba(205, 79, 100, 1)"></path><path d="M237.5 437.5L262.5 412.5L287.5 387.5L312.5 387.5L337.5 387.5M137.5 437.5L162.5 462.5L187.5 462.5L212.5 462.5L237.5 462.5M287.5 412.5L312.5 437.5L337.5 437.5M112.5 437.5L137.5 412.5M-12.5 412.5L12.5 437.5L37.5 437.5L62.5 437.5L87.5 437.5L112.5 437.5L137.5 437.5L162.5 437.5L187.5 437.5L212.5 437.5L237.5 437.5L262.5 437.5L287.5 412.5L312.5 412.5L337.5 412.5L362.5 387.5" stroke="rgba(20, 36, 215, 1)" stroke-width="4.17"></path><path d="M356.25 387.5 a6.25 6.25 0 1 0 12.5 0 a6.25 6.25 0 1 0 -12.5 0zM331.25 387.5 a6.25 6.25 0 1 0 12.5 0 a6.25 6.25 0 1 0 -12.5 0zM231.25 462.5 a6.25 6.25 0 1 0 12.5 0 a6.25 6.25 0 1 0 -12.5 0zM331.25 437.5 a6.25 6.25 0 1 0 12.5 0 a6.25 6.25 0 1 0 -12.5 0zM131.25 412.5 a6.25 6.25 0 1 0 12.5 0 a6.25 6.25 0 1 0 -12.5 0z" fill="rgba(20, 36, 215, 1)"></path><path d="M37.5 287.5L62.5 262.5M-12.5 287.5L12.5 287.5L37.5 287.5L62.5 287.5" stroke="rgba(205, 79, 100, 1)" stroke-width="4.17"></path><path d="M56.25 287.5 a6.25 6.25 0 1 0 12.5 0 a6.25 6.25 0 1 0 -12.5 0zM56.25 262.5 a6.25 6.25 0 1 0 12.5 0 a6.25 6.25 0 1 0 -12.5 0z" fill="rgba(205, 79, 100, 1)"></path><path d="M87.5 462.5L112.5 462.5M-12.5 437.5L12.5 462.5L37.5 462.5L62.5 462.5L87.5 462.5L112.5 487.5" stroke="rgba(205, 79, 100, 1)" stroke-width="4.17"></path><path d="M106.25 487.5 a6.25 6.25 0 1 0 12.5 0 a6.25 6.25 0 1 0 -12.5 0zM106.25 462.5 a6.25 6.25 0 1 0 12.5 0 a6.25 6.25 0 1 0 -12.5 0z" fill="rgba(205, 79, 100, 1)"></path><path d="M-12.5 262.5L12.5 262.5" stroke="rgba(58, 168, 171, 1)" stroke-width="4.17"></path><path d="M6.25 262.5 a6.25 6.25 0 1 0 12.5 0 a6.25 6.25 0 1 0 -12.5 0z" fill="rgba(58, 168, 171, 1)"></path><path d="M212.5 512.5L237.5 537.5L262.5 537.5M162.5 512.5L187.5 537.5L212.5 537.5M187.5 512.5L212.5 487.5L237.5 487.5L262.5 487.5M-12.5 462.5L12.5 487.5L37.5 487.5L62.5 487.5L87.5 487.5L112.5 512.5L137.5 512.5L162.5 512.5L187.5 512.5L212.5 512.5L237.5 512.5" stroke="#3a7cc3" stroke-width="4.17"></path><path d="M231.25 512.5 a6.25 6.25 0 1 0 12.5 0 a6.25 6.25 0 1 0 -12.5 0zM256.25 537.5 a6.25 6.25 0 1 0 12.5 0 a6.25 6.25 0 1 0 -12.5 0zM206.25 537.5 a6.25 6.25 0 1 0 12.5 0 a6.25 6.25 0 1 0 -12.5 0zM256.25 487.5 a6.25 6.25 0 1 0 12.5 0 a6.25 6.25 0 1 0 -12.5 0z" fill="#3a7cc3"></path><path d="M187.5 237.5L212.5 237.5L237.5 237.5L262.5 237.5M112.5 237.5L137.5 262.5M87.5 237.5L112.5 262.5M-12.5 237.5L12.5 237.5L37.5 237.5L62.5 237.5L87.5 237.5L112.5 237.5L137.5 237.5L162.5 237.5L187.5 237.5L212.5 262.5L237.5 262.5L262.5 262.5L287.5 262.5" stroke="rgba(58, 168, 171, 1)" stroke-width="4.17"></path><path d="M281.25 262.5 a6.25 6.25 0 1 0 12.5 0 a6.25 6.25 0 1 0 -12.5 0zM256.25 237.5 a6.25 6.25 0 1 0 12.5 0 a6.25 6.25 0 1 0 -12.5 0zM131.25 262.5 a6.25 6.25 0 1 0 12.5 0 a6.25 6.25 0 1 0 -12.5 0zM106.25 262.5 a6.25 6.25 0 1 0 12.5 0 a6.25 6.25 0 1 0 -12.5 0z" fill="rgba(58, 168, 171, 1)"></path><path d="M-12.5 487.5L12.5 512.5L37.5 512.5L62.5 512.5L87.5 512.5L112.5 537.5" stroke="rgba(205, 79, 100, 1)" stroke-width="4.17"></path><path d="M106.25 537.5 a6.25 6.25 0 1 0 12.5 0 a6.25 6.25 0 1 0 -12.5 0z" fill="rgba(205, 79, 100, 1)"></path><path d="M237.5 187.5L262.5 162.5L287.5 162.5L312.5 162.5L337.5 162.5M212.5 187.5L237.5 212.5L262.5 212.5L287.5 212.5L312.5 212.5M162.5 212.5L187.5 212.5L212.5 212.5M-12.5 212.5L12.5 212.5L37.5 212.5L62.5 212.5L87.5 212.5L112.5 212.5L137.5 212.5L162.5 212.5L187.5 187.5L212.5 187.5L237.5 187.5L262.5 187.5" stroke="rgba(34, 44, 161, 1)" stroke-width="4.17"></path><path d="M256.25 187.5 a6.25 6.25 0 1 0 12.5 0 a6.25 6.25 0 1 0 -12.5 0zM331.25 162.5 a6.25 6.25 0 1 0 12.5 0 a6.25 6.25 0 1 0 -12.5 0zM306.25 212.5 a6.25 6.25 0 1 0 12.5 0 a6.25 6.25 0 1 0 -12.5 0zM206.25 212.5 a6.25 6.25 0 1 0 12.5 0 a6.25 6.25 0 1 0 -12.5 0z" fill="rgba(34, 44, 161, 1)"></path><path d="M37.5 537.5L62.5 562.5L87.5 562.5L112.5 587.5M12.5 537.5L37.5 562.5L62.5 587.5L87.5 587.5M137.5 562.5L162.5 587.5L187.5 587.5L212.5 587.5M-12.5 512.5L12.5 537.5L37.5 537.5L62.5 537.5L87.5 537.5L112.5 562.5L137.5 562.5L162.5 562.5L187.5 562.5L212.5 562.5L237.5 562.5L262.5 562.5" stroke="rgba(58, 171, 77, 1)" stroke-width="4.17"></path><path d="M256.25 562.5 a6.25 6.25 0 1 0 12.5 0 a6.25 6.25 0 1 0 -12.5 0zM106.25 587.5 a6.25 6.25 0 1 0 12.5 0 a6.25 6.25 0 1 0 -12.5 0zM81.25 587.5 a6.25 6.25 0 1 0 12.5 0 a6.25 6.25 0 1 0 -12.5 0zM206.25 587.5 a6.25 6.25 0 1 0 12.5 0 a6.25 6.25 0 1 0 -12.5 0z" fill="rgba(58, 171, 77, 1)"></path><path d="M187.5 162.5L212.5 137.5L237.5 137.5L262.5 137.5M87.5 187.5L112.5 162.5L137.5 162.5M162.5 162.5L187.5 137.5L212.5 112.5L237.5 112.5L262.5 112.5M-12.5 187.5L12.5 187.5L37.5 187.5L62.5 187.5L87.5 187.5L112.5 187.5L137.5 187.5L162.5 162.5L187.5 162.5L212.5 162.5" stroke="rgba(160, 58, 171, 1)" stroke-width="4.17"></path><path d="M206.25 162.5 a6.25 6.25 0 1 0 12.5 0 a6.25 6.25 0 1 0 -12.5 0zM256.25 137.5 a6.25 6.25 0 1 0 12.5 0 a6.25 6.25 0 1 0 -12.5 0zM131.25 162.5 a6.25 6.25 0 1 0 12.5 0 a6.25 6.25 0 1 0 -12.5 0zM256.25 112.5 a6.25 6.25 0 1 0 12.5 0 a6.25 6.25 0 1 0 -12.5 0z" fill="rgba(160, 58, 171, 1)"></path></g></g><defs><mask id="SvgjsMask1028"><rect width="850" height="700" fill="#ffffff"></rect></mask><mask id="SvgjsMask1029"><rect width="850" height="700" fill="white"></rect><path d="M9.37 387.5 a3.13 3.13 0 1 0 6.26 0 a3.13 3.13 0 1 0 -6.26 0z" fill="black"></path><path d="M84.37 337.5 a3.13 3.13 0 1 0 6.26 0 a3.13 3.13 0 1 0 -6.26 0zM84.37 362.5 a3.13 3.13 0 1 0 6.26 0 a3.13 3.13 0 1 0 -6.26 0z" fill="black"></path><path d="M84.37 412.5 a3.13 3.13 0 1 0 6.26 0 a3.13 3.13 0 1 0 -6.26 0zM84.37 387.5 a3.13 3.13 0 1 0 6.26 0 a3.13 3.13 0 1 0 -6.26 0z" fill="black"></path><path d="M159.37 337.5 a3.13 3.13 0 1 0 6.26 0 a3.13 3.13 0 1 0 -6.26 0zM159.37 312.5 a3.13 3.13 0 1 0 6.26 0 a3.13 3.13 0 1 0 -6.26 0zM159.37 287.5 a3.13 3.13 0 1 0 6.26 0 a3.13 3.13 0 1 0 -6.26 0z" fill="black"></path><path d="M359.37 387.5 a3.13 3.13 0 1 0 6.26 0 a3.13 3.13 0 1 0 -6.26 0zM334.37 387.5 a3.13 3.13 0 1 0 6.26 0 a3.13 3.13 0 1 0 -6.26 0zM234.37 462.5 a3.13 3.13 0 1 0 6.26 0 a3.13 3.13 0 1 0 -6.26 0zM334.37 437.5 a3.13 3.13 0 1 0 6.26 0 a3.13 3.13 0 1 0 -6.26 0zM134.37 412.5 a3.13 3.13 0 1 0 6.26 0 a3.13 3.13 0 1 0 -6.26 0z" fill="black"></path><path d="M59.37 287.5 a3.13 3.13 0 1 0 6.26 0 a3.13 3.13 0 1 0 -6.26 0zM59.37 262.5 a3.13 3.13 0 1 0 6.26 0 a3.13 3.13 0 1 0 -6.26 0z" fill="black"></path><path d="M109.37 487.5 a3.13 3.13 0 1 0 6.26 0 a3.13 3.13 0 1 0 -6.26 0zM109.37 462.5 a3.13 3.13 0 1 0 6.26 0 a3.13 3.13 0 1 0 -6.26 0z" fill="black"></path><path d="M9.37 262.5 a3.13 3.13 0 1 0 6.26 0 a3.13 3.13 0 1 0 -6.26 0z" fill="black"></path><path d="M234.37 512.5 a3.13 3.13 0 1 0 6.26 0 a3.13 3.13 0 1 0 -6.26 0zM259.37 537.5 a3.13 3.13 0 1 0 6.26 0 a3.13 3.13 0 1 0 -6.26 0zM209.37 537.5 a3.13 3.13 0 1 0 6.26 0 a3.13 3.13 0 1 0 -6.26 0zM259.37 487.5 a3.13 3.13 0 1 0 6.26 0 a3.13 3.13 0 1 0 -6.26 0z" fill="black"></path><path d="M284.37 262.5 a3.13 3.13 0 1 0 6.26 0 a3.13 3.13 0 1 0 -6.26 0zM259.37 237.5 a3.13 3.13 0 1 0 6.26 0 a3.13 3.13 0 1 0 -6.26 0zM134.37 262.5 a3.13 3.13 0 1 0 6.26 0 a3.13 3.13 0 1 0 -6.26 0zM109.37 262.5 a3.13 3.13 0 1 0 6.26 0 a3.13 3.13 0 1 0 -6.26 0z" fill="black"></path><path d="M109.37 537.5 a3.13 3.13 0 1 0 6.26 0 a3.13 3.13 0 1 0 -6.26 0z" fill="black"></path><path d="M259.37 187.5 a3.13 3.13 0 1 0 6.26 0 a3.13 3.13 0 1 0 -6.26 0zM334.37 162.5 a3.13 3.13 0 1 0 6.26 0 a3.13 3.13 0 1 0 -6.26 0zM309.37 212.5 a3.13 3.13 0 1 0 6.26 0 a3.13 3.13 0 1 0 -6.26 0zM209.37 212.5 a3.13 3.13 0 1 0 6.26 0 a3.13 3.13 0 1 0 -6.26 0z" fill="black"></path><path d="M259.37 562.5 a3.13 3.13 0 1 0 6.26 0 a3.13 3.13 0 1 0 -6.26 0zM109.37 587.5 a3.13 3.13 0 1 0 6.26 0 a3.13 3.13 0 1 0 -6.26 0zM84.37 587.5 a3.13 3.13 0 1 0 6.26 0 a3.13 3.13 0 1 0 -6.26 0zM209.37 587.5 a3.13 3.13 0 1 0 6.26 0 a3.13 3.13 0 1 0 -6.26 0z" fill="black"></path><path d="M209.37 162.5 a3.13 3.13 0 1 0 6.26 0 a3.13 3.13 0 1 0 -6.26 0zM259.37 137.5 a3.13 3.13 0 1 0 6.26 0 a3.13 3.13 0 1 0 -6.26 0zM134.37 162.5 a3.13 3.13 0 1 0 6.26 0 a3.13 3.13 0 1 0 -6.26 0zM259.37 112.5 a3.13 3.13 0 1 0 6.26 0 a3.13 3.13 0 1 0 -6.26 0z" fill="black"></path></mask></defs></svg>