<svg xmlns="http://www.w3.org/2000/svg" version="1.1" xmlns:xlink="http://www.w3.org/1999/xlink" xmlns:svgjs="http://svgjs.dev/svgjs" width="500" height="820" preserveAspectRatio="none" viewBox="0 0 500 820"><g clip-path="url(&quot;#SvgjsClipPath1042&quot;)" fill="none"><rect width="500" height="820" x="0" y="0" fill="rgba(10, 64, 121, 1)"></rect><circle r="83.335" cx="-61.38" cy="29.23" stroke="#365aa3" stroke-opacity="0.25" stroke-width="2"></circle><circle r="83.335" cx="414.7" cy="277.25" stroke="#365aa3" stroke-opacity="0.25" stroke-width="2"></circle><circle r="136.875" cx="64.24" cy="128.53" stroke="#365aa3" stroke-opacity="0.25" stroke-width="2"></circle><circle r="46.21" cx="307.22" cy="146.86" stroke="#365aa3" stroke-opacity="0.25" stroke-width="2"></circle><circle r="93.175" cx="226.24" cy="137.33" stroke="#365aa3" stroke-opacity="0.25" stroke-width="2"></circle><circle r="64.97" cx="124.88" cy="240.82" stroke="#365aa3" stroke-opacity="0.25" stroke-width="2"></circle><circle r="115.57" cx="70.42" cy="75.85" stroke="#365aa3" stroke-opacity="0.25" stroke-width="2"></circle><circle r="125.025" cx="296.5" cy="542.37" stroke="#365aa3" stroke-opacity="0.25" stroke-width="2"></circle><circle r="51.425" cx="489.02" cy="301.11" stroke="#365aa3" stroke-opacity="0.25" stroke-width="2"></circle><circle r="61.425" cx="327.48" cy="726.46" stroke="#365aa3" stroke-opacity="0.25" stroke-width="2"></circle><circle r="53.615" cx="178.1" cy="115.07" stroke="#365aa3" stroke-opacity="0.25" stroke-width="2"></circle><circle r="124.2" cx="439.06" cy="283.04" stroke="#365aa3" stroke-opacity="0.25" stroke-width="2"></circle><circle r="97.155" cx="341" cy="67.47" stroke="#365aa3" stroke-opacity="0.25" stroke-width="2"></circle><circle r="129.07" cx="155.69" cy="579.78" stroke="#365aa3" stroke-opacity="0.25" stroke-width="2"></circle><circle r="97.445" cx="390.12" cy="229.83" stroke="#365aa3" stroke-opacity="0.25" stroke-width="2"></circle><circle r="68.175" cx="145.12" cy="691.75" stroke="#365aa3" stroke-opacity="0.25" stroke-width="2"></circle><circle r="81.51" cx="383.96" cy="441.12" stroke="#365aa3" stroke-opacity="0.25" stroke-width="2"></circle><circle r="47.125" cx="43.49" cy="238.33" stroke="#365aa3" stroke-opacity="0.25" stroke-width="2"></circle><circle r="105.89" cx="21.58" cy="706.36" stroke="#365aa3" stroke-opacity="0.25" stroke-width="2"></circle><circle r="121.625" cx="362.84" cy="773.61" stroke="#365aa3" stroke-opacity="0.25" stroke-width="2"></circle><circle r="124.39" cx="229.86" cy="78.65" stroke="#365aa3" stroke-opacity="0.25" stroke-width="2"></circle><circle r="135.48" cx="262.45" cy="776.12" stroke="#365aa3" stroke-opacity="0.25" stroke-width="2"></circle><circle r="128.09" cx="266.33" cy="126.08" stroke="#365aa3" stroke-opacity="0.25" stroke-width="2"></circle><circle r="152.73" cx="277.24" cy="383.14" stroke="#365aa3" stroke-opacity="0.25" stroke-width="2"></circle><circle r="64.505" cx="407.01" cy="306.9" stroke="#365aa3" stroke-opacity="0.25" stroke-width="2"></circle><circle r="149.75" cx="133.4" cy="482.43" stroke="#365aa3" stroke-opacity="0.25" stroke-width="2"></circle><circle r="81.28" cx="428.92" cy="177.49" stroke="#365aa3" stroke-opacity="0.25" stroke-width="2"></circle><circle r="96.61" cx="96.22" cy="454.49" stroke="#365aa3" stroke-opacity="0.25" stroke-width="2"></circle><circle r="88.34" cx="232.84" cy="745.21" stroke="#365aa3" stroke-opacity="0.25" stroke-width="2"></circle><circle r="101.73" cx="103.75" cy="45.12" stroke="#365aa3" stroke-opacity="0.25" stroke-width="2"></circle><circle r="120.87" cx="144.24" cy="596.03" stroke="#365aa3" stroke-opacity="0.25" stroke-width="2"></circle><circle r="130.905" cx="238.51" cy="89.87" stroke="#365aa3" stroke-opacity="0.25" stroke-width="2"></circle><circle r="136.11" cx="409.11" cy="158.16" stroke="#365aa3" stroke-opacity="0.25" stroke-width="2"></circle><circle r="107.69" cx="231.19" cy="716.33" stroke="#365aa3" stroke-opacity="0.25" stroke-width="2"></circle><circle r="51.07" cx="320.38" cy="100.64" stroke="#365aa3" stroke-opacity="0.25" stroke-width="2"></circle><circle r="62.04" cx="131.83" cy="279.18" stroke="#365aa3" stroke-opacity="0.25" stroke-width="2"></circle><circle r="146.07" cx="152.02" cy="347.1" stroke="#365aa3" stroke-opacity="0.25" stroke-width="2"></circle><circle r="128.23" cx="180.9" cy="476.04" stroke="#365aa3" stroke-opacity="0.25" stroke-width="2"></circle><circle r="126.505" cx="51.22" cy="508.52" stroke="#365aa3" stroke-opacity="0.25" stroke-width="2"></circle><circle r="83.28" cx="240.98" cy="664.17" stroke="#365aa3" stroke-opacity="0.25" stroke-width="2"></circle><circle r="45.02" cx="42.81" cy="570.73" stroke="#365aa3" stroke-opacity="0.25" stroke-width="2"></circle><circle r="118.64" cx="468.3" cy="480.93" stroke="#365aa3" stroke-opacity="0.25" stroke-width="2"></circle><circle r="69.265" cx="182.14" cy="138.05" stroke="#365aa3" stroke-opacity="0.25" stroke-width="2"></circle><circle r="101.665" cx="386.54" cy="128.73" stroke="#365aa3" stroke-opacity="0.25" stroke-width="2"></circle><circle r="105.805" cx="377.75" cy="347.7" stroke="#365aa3" stroke-opacity="0.25" stroke-width="2"></circle><circle r="78.825" cx="265.43" cy="667.46" stroke="#365aa3" stroke-opacity="0.25" stroke-width="2"></circle><circle r="63.205" cx="451.45" cy="230.54" stroke="#365aa3" stroke-opacity="0.25" stroke-width="2"></circle></g><defs><clipPath id="SvgjsClipPath1042"><rect width="500" height="820" x="0" y="0"></rect></clipPath></defs></svg>