<svg xmlns="http://www.w3.org/2000/svg" version="1.1" xmlns:xlink="http://www.w3.org/1999/xlink" xmlns:svgjs="http://svgjs.dev/svgjs" width="560" height="800" preserveAspectRatio="none" viewBox="0 0 560 800"><g mask="url(&quot;#SvgjsMask1137&quot;)" fill="none"><rect width="560" height="800" x="0" y="0" fill="rgba(81, 46, 95, 1)"></rect><path d="M0,233.803C47.091,234.954,101.262,243.816,136.88,212.99C172.416,182.235,163.834,125.921,176.836,80.758C187.61,43.334,208.823,9.162,206.757,-29.727C204.579,-70.726,189.082,-109.714,164.953,-142.933C139.351,-178.18,107.16,-210.39,65.736,-223.876C23.764,-237.541,-20.536,-225.966,-63.841,-217.421C-111.221,-208.072,-168.997,-210.211,-198.252,-171.786C-227.583,-133.262,-206.262,-78.142,-206.743,-29.725C-207.154,11.644,-213.255,52.26,-200.868,91.733C-187.276,135.047,-169.71,180.189,-132.647,206.403C-95.024,233.013,-46.068,232.677,0,233.803" fill="#42264e"></path><path d="M560 1014.024C614.067 1015.364 667.456 1066.4470000000001 716.273 1043.166 764.34 1020.2429999999999 767.486 953.297 789.251 904.6949999999999 810.833 856.503 844.2280000000001 812.049 843.4159999999999 759.251 842.5550000000001 703.207 827.504 641.468 784.65 605.34 742.629 569.915 680.17 584.028 625.826 575.816 579.774 568.857 533.12 543.779 489.758 560.779 447.06 577.518 432.443 628.787 402.375 663.417 372.269 698.092 328.93899999999996 721.444 312.901 764.473 295.034 812.407 291.653 866.535 308.687 914.771 326.446 965.061 359.02 1015.952 408.625 1035.5430000000001 457.007 1054.651 507.997 1012.736 560 1014.024" fill="#603670"></path></g><defs><mask id="SvgjsMask1137"><rect width="560" height="800" fill="#ffffff"></rect></mask></defs></svg>